<svg xmlns="http://www.w3.org/2000/svg" xmlns:xlink="http://www.w3.org/1999/xlink" width="1920" zoomAndPan="magnify" viewBox="0 0 1440 809.999993" height="1080" preserveAspectRatio="xMidYMid meet" version="1.0"><defs><g/><clipPath id="2b2fda763a"><path d="M 673.390625 382 L 721 382 L 721 412 L 673.390625 412 Z M 673.390625 382 " clip-rule="nonzero"/></clipPath><clipPath id="dc9237e9aa"><path d="M 719 382 L 766.390625 382 L 766.390625 412 L 719 412 Z M 719 382 " clip-rule="nonzero"/></clipPath><clipPath id="b2e57c28c5"><path d="M 707 348.4375 L 733 348.4375 L 733 411 L 707 411 Z M 707 348.4375 " clip-rule="nonzero"/></clipPath></defs><g clip-path="url(#2b2fda763a)"><path fill="#f8a3d0" d="M 673.394531 383.128906 C 673.394531 383.128906 683.453125 416.628906 720.121094 410.550781 C 720.121094 410.550781 715.941406 379.078125 673.394531 383.128906 " fill-opacity="1" fill-rule="nonzero"/></g><path fill="#f57bbc" d="M 682.664062 363.210938 C 682.664062 363.210938 679.636719 401.265625 720.144531 410.488281 C 720.144531 410.488281 728.460938 376.949219 682.664062 363.210938 " fill-opacity="1" fill-rule="nonzero"/><path fill="#f8a3d0" d="M 702.769531 358.53125 C 702.769531 358.53125 688.378906 390.316406 720.101562 410.539062 C 720.101562 410.539062 737.609375 384.238281 702.769531 358.53125 " fill-opacity="1" fill-rule="nonzero"/><g clip-path="url(#dc9237e9aa)"><path fill="#f8a3d0" d="M 766.386719 383.128906 C 766.386719 383.128906 756.328125 416.628906 719.660156 410.550781 C 719.660156 410.550781 723.835938 379.078125 766.386719 383.128906 " fill-opacity="1" fill-rule="nonzero"/></g><path fill="#f57bbc" d="M 757.113281 363.210938 C 757.113281 363.210938 760.140625 401.265625 719.636719 410.488281 C 719.636719 410.488281 711.320312 376.949219 757.113281 363.210938 " fill-opacity="1" fill-rule="nonzero"/><path fill="#f8a3d0" d="M 737.011719 358.53125 C 737.011719 358.53125 751.402344 390.316406 719.683594 410.539062 C 719.683594 410.539062 702.171875 384.238281 737.011719 358.53125 " fill-opacity="1" fill-rule="nonzero"/><g clip-path="url(#b2e57c28c5)"><path fill="#f57bbc" d="M 719.566406 348.4375 C 719.566406 348.4375 693.042969 377.605469 720.183594 410.488281 C 720.183594 410.488281 748.15625 388.316406 719.566406 348.4375 " fill-opacity="1" fill-rule="nonzero"/></g><g fill="#737373" fill-opacity="1"><g transform="translate(670.613055, 457.564197)"><g><path d="M 6.3125 0.28125 C 5.632812 0.28125 4.972656 0.160156 4.328125 -0.078125 C 3.679688 -0.316406 3.144531 -0.644531 2.71875 -1.0625 L 2.40625 0.125 L 1.515625 0.125 L 1.125 -4.203125 L 2.265625 -4.296875 C 2.660156 -3.203125 3.191406 -2.378906 3.859375 -1.828125 C 4.535156 -1.273438 5.335938 -1 6.265625 -1 C 6.816406 -1 7.285156 -1.085938 7.671875 -1.265625 C 8.066406 -1.453125 8.363281 -1.71875 8.5625 -2.0625 C 8.757812 -2.40625 8.859375 -2.816406 8.859375 -3.296875 C 8.859375 -4.035156 8.625 -4.625 8.15625 -5.0625 C 7.6875 -5.5 6.875 -5.90625 5.71875 -6.28125 C 4.71875 -6.601562 3.914062 -6.945312 3.3125 -7.3125 C 2.71875 -7.6875 2.285156 -8.125 2.015625 -8.625 C 1.753906 -9.125 1.625 -9.722656 1.625 -10.421875 C 1.625 -10.992188 1.722656 -11.515625 1.921875 -11.984375 C 2.128906 -12.460938 2.421875 -12.867188 2.796875 -13.203125 C 3.171875 -13.546875 3.617188 -13.8125 4.140625 -14 C 4.671875 -14.1875 5.257812 -14.28125 5.90625 -14.28125 C 6.445312 -14.28125 6.976562 -14.1875 7.5 -14 C 8.03125 -13.8125 8.484375 -13.554688 8.859375 -13.234375 L 9.125 -14.28125 L 10.0625 -14.28125 L 10.5 -10.234375 L 9.375 -10.078125 C 9.070312 -11.128906 8.640625 -11.910156 8.078125 -12.421875 C 7.515625 -12.929688 6.804688 -13.1875 5.953125 -13.1875 C 5.234375 -13.1875 4.65625 -12.984375 4.21875 -12.578125 C 3.78125 -12.179688 3.5625 -11.648438 3.5625 -10.984375 C 3.5625 -10.535156 3.65625 -10.148438 3.84375 -9.828125 C 4.039062 -9.515625 4.363281 -9.226562 4.8125 -8.96875 C 5.269531 -8.707031 5.882812 -8.445312 6.65625 -8.1875 C 7.414062 -7.925781 8.0625 -7.65625 8.59375 -7.375 C 9.132812 -7.09375 9.5625 -6.789062 9.875 -6.46875 C 10.195312 -6.144531 10.429688 -5.78125 10.578125 -5.375 C 10.722656 -4.976562 10.796875 -4.519531 10.796875 -4 C 10.796875 -3.175781 10.601562 -2.4375 10.21875 -1.78125 C 9.832031 -1.132812 9.300781 -0.628906 8.625 -0.265625 C 7.957031 0.0976562 7.1875 0.28125 6.3125 0.28125 Z M 6.3125 0.28125 "/></g></g></g><g fill="#737373" fill-opacity="1"><g transform="translate(682.568343, 457.564197)"><g><path d="M 0.296875 0 L 0.296875 -0.953125 L 1.265625 -1.125 C 1.503906 -1.175781 1.675781 -1.265625 1.78125 -1.390625 C 1.882812 -1.515625 2.019531 -1.785156 2.1875 -2.203125 L 6.40625 -14 L 8.515625 -14 L 12.703125 -2.1875 C 12.835938 -1.832031 12.945312 -1.585938 13.03125 -1.453125 C 13.113281 -1.328125 13.296875 -1.226562 13.578125 -1.15625 L 14.40625 -1 L 14.40625 0 L 9.0625 0 L 9.0625 -0.953125 L 10.21875 -1.09375 C 10.488281 -1.132812 10.648438 -1.226562 10.703125 -1.375 C 10.765625 -1.519531 10.726562 -1.757812 10.59375 -2.09375 L 9.734375 -4.625 L 4.375 -4.625 L 3.546875 -2.1875 C 3.421875 -1.851562 3.390625 -1.601562 3.453125 -1.4375 C 3.523438 -1.28125 3.707031 -1.164062 4 -1.09375 L 5.140625 -0.9375 L 5.140625 0 Z M 4.78125 -5.765625 L 9.359375 -5.765625 L 7.140625 -12.34375 L 7.0625 -12.34375 Z M 4.78125 -5.765625 "/></g></g></g><g fill="#737373" fill-opacity="1"><g transform="translate(697.262544, 457.564197)"><g><path d="M 1.265625 0 L 1.265625 -0.953125 L 2.40625 -1.140625 C 2.675781 -1.179688 2.84375 -1.285156 2.90625 -1.453125 C 2.96875 -1.628906 3.003906 -1.863281 3.015625 -2.15625 L 3.625 -11.921875 C 3.625 -12.265625 3.582031 -12.492188 3.5 -12.609375 C 3.414062 -12.722656 3.242188 -12.804688 2.984375 -12.859375 L 1.859375 -13.046875 L 1.859375 -14 L 6.5 -14 L 9.921875 -3.859375 L 10 -4.0625 L 13.578125 -14 L 18.203125 -14 L 18.203125 -13.046875 L 16.9375 -12.859375 C 16.695312 -12.828125 16.535156 -12.742188 16.453125 -12.609375 C 16.378906 -12.472656 16.34375 -12.21875 16.34375 -11.84375 L 16.9375 -2.078125 C 16.9375 -1.742188 16.976562 -1.515625 17.0625 -1.390625 C 17.15625 -1.273438 17.328125 -1.191406 17.578125 -1.140625 L 18.796875 -0.953125 L 18.796875 0 L 13.09375 0 L 13.09375 -0.953125 L 14.34375 -1.140625 C 14.59375 -1.179688 14.753906 -1.265625 14.828125 -1.390625 C 14.910156 -1.523438 14.953125 -1.78125 14.953125 -2.15625 L 14.359375 -12.28125 L 14.359375 -12.4375 L 10.625 -2.265625 L 8.625 -2.265625 L 5.015625 -12.453125 L 5.015625 -12.296875 L 4.421875 -2.078125 C 4.410156 -1.742188 4.441406 -1.515625 4.515625 -1.390625 C 4.597656 -1.273438 4.78125 -1.191406 5.0625 -1.140625 L 6.1875 -0.953125 L 6.1875 0 Z M 1.265625 0 "/></g></g></g><g fill="#737373" fill-opacity="1"><g transform="translate(717.31463, 457.564197)"><g><path d="M 0.296875 0 L 0.296875 -0.953125 L 1.265625 -1.125 C 1.503906 -1.175781 1.675781 -1.265625 1.78125 -1.390625 C 1.882812 -1.515625 2.019531 -1.785156 2.1875 -2.203125 L 6.40625 -14 L 8.515625 -14 L 12.703125 -2.1875 C 12.835938 -1.832031 12.945312 -1.585938 13.03125 -1.453125 C 13.113281 -1.328125 13.296875 -1.226562 13.578125 -1.15625 L 14.40625 -1 L 14.40625 0 L 9.0625 0 L 9.0625 -0.953125 L 10.21875 -1.09375 C 10.488281 -1.132812 10.648438 -1.226562 10.703125 -1.375 C 10.765625 -1.519531 10.726562 -1.757812 10.59375 -2.09375 L 9.734375 -4.625 L 4.375 -4.625 L 3.546875 -2.1875 C 3.421875 -1.851562 3.390625 -1.601562 3.453125 -1.4375 C 3.523438 -1.28125 3.707031 -1.164062 4 -1.09375 L 5.140625 -0.9375 L 5.140625 0 Z M 4.78125 -5.765625 L 9.359375 -5.765625 L 7.140625 -12.34375 L 7.0625 -12.34375 Z M 4.78125 -5.765625 "/></g></g></g><g fill="#737373" fill-opacity="1"><g transform="translate(732.008831, 457.564197)"><g><path d="M 1.234375 0 L 1.234375 -0.953125 L 2.484375 -1.140625 C 2.734375 -1.179688 2.894531 -1.265625 2.96875 -1.390625 C 3.050781 -1.523438 3.09375 -1.78125 3.09375 -2.15625 L 3.09375 -11.921875 C 3.09375 -12.265625 3.050781 -12.492188 2.96875 -12.609375 C 2.882812 -12.722656 2.707031 -12.804688 2.4375 -12.859375 L 1.234375 -13.046875 L 1.234375 -14 L 6.9375 -14 L 6.9375 -13.046875 L 5.6875 -12.859375 C 5.4375 -12.816406 5.269531 -12.722656 5.1875 -12.578125 C 5.113281 -12.441406 5.078125 -12.195312 5.078125 -11.84375 L 5.078125 -2.078125 C 5.078125 -1.742188 5.117188 -1.515625 5.203125 -1.390625 C 5.296875 -1.273438 5.46875 -1.191406 5.71875 -1.140625 L 6.9375 -0.953125 L 6.9375 0 Z M 1.234375 0 "/></g></g></g><g fill="#737373" fill-opacity="1"><g transform="translate(740.1856, 457.564197)"><g><path d="M 11.9375 0.28125 C 11.457031 0.28125 11.046875 0.203125 10.703125 0.046875 C 10.367188 -0.109375 10.066406 -0.367188 9.796875 -0.734375 C 9.535156 -1.109375 9.269531 -1.625 9 -2.28125 L 8.046875 -4.578125 C 7.828125 -5.097656 7.628906 -5.488281 7.453125 -5.75 C 7.273438 -6.007812 7.066406 -6.1875 6.828125 -6.28125 C 6.597656 -6.375 6.289062 -6.421875 5.90625 -6.421875 C 5.570312 -6.421875 5.269531 -6.398438 5 -6.359375 L 5 -2.125 C 5 -1.757812 5.046875 -1.507812 5.140625 -1.375 C 5.242188 -1.25 5.441406 -1.164062 5.734375 -1.125 L 7.140625 -0.953125 L 7.140625 0 L 1.234375 0 L 1.234375 -0.953125 L 2.40625 -1.140625 C 2.65625 -1.179688 2.816406 -1.265625 2.890625 -1.390625 C 2.972656 -1.523438 3.015625 -1.78125 3.015625 -2.15625 L 3.015625 -11.921875 C 3.015625 -12.265625 2.972656 -12.492188 2.890625 -12.609375 C 2.804688 -12.722656 2.628906 -12.804688 2.359375 -12.859375 L 1.234375 -13.046875 L 1.234375 -14 L 6.265625 -14 C 7.429688 -14 8.414062 -13.863281 9.21875 -13.59375 C 10.019531 -13.320312 10.625 -12.921875 11.03125 -12.390625 C 11.4375 -11.859375 11.640625 -11.203125 11.640625 -10.421875 C 11.640625 -9.992188 11.550781 -9.578125 11.375 -9.171875 C 11.207031 -8.773438 10.96875 -8.410156 10.65625 -8.078125 C 10.34375 -7.742188 9.972656 -7.460938 9.546875 -7.234375 C 9.117188 -7.015625 8.65625 -6.859375 8.15625 -6.765625 L 8.15625 -6.703125 C 8.664062 -6.566406 9.078125 -6.359375 9.390625 -6.078125 C 9.703125 -5.796875 9.96875 -5.394531 10.1875 -4.875 L 10.875 -3.234375 C 11.082031 -2.785156 11.265625 -2.394531 11.421875 -2.0625 C 11.578125 -1.738281 11.765625 -1.488281 11.984375 -1.3125 C 12.203125 -1.144531 12.492188 -1.0625 12.859375 -1.0625 C 12.984375 -1.0625 13.109375 -1.070312 13.234375 -1.09375 C 13.367188 -1.125 13.546875 -1.171875 13.765625 -1.234375 L 13.953125 -0.515625 C 13.679688 -0.253906 13.378906 -0.0546875 13.046875 0.078125 C 12.710938 0.210938 12.34375 0.28125 11.9375 0.28125 Z M 6.125 -7.375 C 6.84375 -7.375 7.453125 -7.488281 7.953125 -7.71875 C 8.453125 -7.945312 8.832031 -8.28125 9.09375 -8.71875 C 9.363281 -9.15625 9.5 -9.679688 9.5 -10.296875 C 9.5 -11.203125 9.226562 -11.863281 8.6875 -12.28125 C 8.144531 -12.707031 7.289062 -12.921875 6.125 -12.921875 L 5 -12.921875 L 5 -7.421875 C 5.25 -7.410156 5.460938 -7.398438 5.640625 -7.390625 C 5.828125 -7.378906 5.988281 -7.375 6.125 -7.375 Z M 6.125 -7.375 "/></g></g></g><g fill="#737373" fill-opacity="1"><g transform="translate(754.679885, 457.564197)"><g><path d="M 0.296875 0 L 0.296875 -0.953125 L 1.265625 -1.125 C 1.503906 -1.175781 1.675781 -1.265625 1.78125 -1.390625 C 1.882812 -1.515625 2.019531 -1.785156 2.1875 -2.203125 L 6.40625 -14 L 8.515625 -14 L 12.703125 -2.1875 C 12.835938 -1.832031 12.945312 -1.585938 13.03125 -1.453125 C 13.113281 -1.328125 13.296875 -1.226562 13.578125 -1.15625 L 14.40625 -1 L 14.40625 0 L 9.0625 0 L 9.0625 -0.953125 L 10.21875 -1.09375 C 10.488281 -1.132812 10.648438 -1.226562 10.703125 -1.375 C 10.765625 -1.519531 10.726562 -1.757812 10.59375 -2.09375 L 9.734375 -4.625 L 4.375 -4.625 L 3.546875 -2.1875 C 3.421875 -1.851562 3.390625 -1.601562 3.453125 -1.4375 C 3.523438 -1.28125 3.707031 -1.164062 4 -1.09375 L 5.140625 -0.9375 L 5.140625 0 Z M 4.78125 -5.765625 L 9.359375 -5.765625 L 7.140625 -12.34375 L 7.0625 -12.34375 Z M 4.78125 -5.765625 "/></g></g></g><g fill="#737373" fill-opacity="1"><g transform="translate(639.792744, 432.56419)"><g><path d="M 6.015625 -8 C 5.835938 -8.320312 5.53125 -8.59375 5.09375 -8.8125 C 4.65625 -9.03125 4.191406 -9.140625 3.703125 -9.140625 C 3.210938 -9.140625 2.796875 -9 2.453125 -8.71875 C 2.109375 -8.4375 1.9375 -8.0625 1.9375 -7.59375 C 1.9375 -7.113281 2.0625 -6.738281 2.3125 -6.46875 C 2.570312 -6.207031 2.890625 -6.019531 3.265625 -5.90625 C 3.648438 -5.800781 4.066406 -5.675781 4.515625 -5.53125 C 4.960938 -5.382812 5.375 -5.226562 5.75 -5.0625 C 6.132812 -4.90625 6.453125 -4.628906 6.703125 -4.234375 C 6.960938 -3.847656 7.09375 -3.378906 7.09375 -2.828125 C 7.09375 -2.273438 6.992188 -1.800781 6.796875 -1.40625 C 6.597656 -1.019531 6.328125 -0.71875 5.984375 -0.5 C 5.328125 -0.0703125 4.578125 0.140625 3.734375 0.140625 C 2.890625 0.140625 2.164062 0.00390625 1.5625 -0.265625 C 0.96875 -0.535156 0.671875 -0.867188 0.671875 -1.265625 C 0.671875 -1.492188 0.796875 -1.6875 1.046875 -1.84375 C 1.128906 -1.894531 1.257812 -1.96875 1.4375 -2.0625 C 1.632812 -1.6875 1.976562 -1.378906 2.46875 -1.140625 C 2.957031 -0.910156 3.472656 -0.796875 4.015625 -0.796875 C 4.546875 -0.796875 5.007812 -0.945312 5.40625 -1.25 C 5.8125 -1.550781 6.015625 -1.960938 6.015625 -2.484375 C 6.015625 -3.003906 5.835938 -3.398438 5.484375 -3.671875 C 5.128906 -3.953125 4.695312 -4.160156 4.1875 -4.296875 C 3.6875 -4.441406 3.179688 -4.597656 2.671875 -4.765625 C 2.171875 -4.941406 1.742188 -5.226562 1.390625 -5.625 C 1.035156 -6.03125 0.859375 -6.570312 0.859375 -7.25 C 0.859375 -8.164062 1.160156 -8.867188 1.765625 -9.359375 C 2.367188 -9.847656 3.140625 -10.09375 4.078125 -10.09375 C 4.765625 -10.09375 5.398438 -9.972656 5.984375 -9.734375 C 6.578125 -9.492188 6.875 -9.164062 6.875 -8.75 C 6.875 -8.34375 6.585938 -8.09375 6.015625 -8 Z M 6.015625 -8 "/></g></g></g><g fill="#737373" fill-opacity="1"><g transform="translate(649.06374, 432.56419)"><g><path d="M 0.984375 -0.734375 L 1.015625 -5.03125 L 1.015625 -6.765625 C 1.015625 -9.128906 0.976562 -10.578125 0.90625 -11.109375 C 1.0625 -11.128906 1.234375 -11.140625 1.421875 -11.140625 C 1.878906 -11.140625 2.109375 -10.953125 2.109375 -10.578125 C 2.109375 -10.535156 2.109375 -10.304688 2.109375 -9.890625 C 2.035156 -8.347656 2 -7.09375 2 -6.125 C 2.71875 -6.789062 3.488281 -7.125 4.3125 -7.125 C 4.957031 -7.125 5.445312 -6.945312 5.78125 -6.59375 C 6.125 -6.238281 6.296875 -5.78125 6.296875 -5.21875 C 6.296875 -4.644531 6.109375 -4.132812 5.734375 -3.6875 C 5.359375 -3.25 4.835938 -2.992188 4.171875 -2.921875 C 4.703125 -2.046875 5.097656 -1.46875 5.359375 -1.1875 C 5.617188 -0.914062 5.90625 -0.78125 6.21875 -0.78125 C 6.382812 -0.78125 6.515625 -0.800781 6.609375 -0.84375 C 6.703125 -0.664062 6.75 -0.503906 6.75 -0.359375 C 6.75 -0.203125 6.644531 -0.0820312 6.4375 0 C 6.226562 0.09375 6.03125 0.140625 5.84375 0.140625 C 5.445312 0.140625 5.082031 -0.0351562 4.75 -0.390625 C 4.425781 -0.753906 4.144531 -1.128906 3.90625 -1.515625 C 3.675781 -1.898438 3.488281 -2.210938 3.34375 -2.453125 C 3.195312 -2.703125 3.097656 -2.875 3.046875 -2.96875 C 2.785156 -3 2.65625 -3.101562 2.65625 -3.28125 C 2.65625 -3.394531 2.679688 -3.515625 2.734375 -3.640625 C 3.046875 -3.566406 3.300781 -3.53125 3.5 -3.53125 C 4.050781 -3.53125 4.472656 -3.679688 4.765625 -3.984375 C 5.066406 -4.296875 5.21875 -4.640625 5.21875 -5.015625 C 5.21875 -5.378906 5.113281 -5.679688 4.90625 -5.921875 C 4.707031 -6.160156 4.429688 -6.28125 4.078125 -6.28125 C 3.722656 -6.28125 3.359375 -6.175781 2.984375 -5.96875 C 2.609375 -5.769531 2.28125 -5.515625 2 -5.203125 L 2 -3.03125 C 2 -1.695312 2.097656 -0.710938 2.296875 -0.078125 C 2.109375 0.00390625 1.894531 0.046875 1.65625 0.046875 C 1.414062 0.046875 1.242188 -0.0078125 1.140625 -0.125 C 1.035156 -0.25 0.984375 -0.453125 0.984375 -0.734375 Z M 0.984375 -0.734375 "/></g></g></g><g fill="#737373" fill-opacity="1"><g transform="translate(657.719501, 432.56419)"><g><path d="M 1.0625 -0.8125 L 1.09375 -3.46875 C 1.09375 -4.894531 1.054688 -6.0625 0.984375 -6.96875 C 1.148438 -7 1.320312 -7.015625 1.5 -7.015625 C 1.96875 -7.015625 2.203125 -6.828125 2.203125 -6.453125 C 2.203125 -6.398438 2.191406 -6.203125 2.171875 -5.859375 C 2.117188 -4.785156 2.09375 -3.710938 2.09375 -2.640625 C 2.09375 -1.554688 2.1875 -0.703125 2.375 -0.078125 C 2.195312 0.00390625 1.984375 0.046875 1.734375 0.046875 C 1.484375 0.046875 1.304688 -0.015625 1.203125 -0.140625 C 1.109375 -0.273438 1.0625 -0.5 1.0625 -0.8125 Z M 2.34375 -8.625 C 2.34375 -8.394531 2.257812 -8.203125 2.09375 -8.046875 C 1.9375 -7.890625 1.753906 -7.8125 1.546875 -7.8125 C 1.347656 -7.8125 1.171875 -7.882812 1.015625 -8.03125 C 0.867188 -8.1875 0.796875 -8.378906 0.796875 -8.609375 C 0.796875 -8.835938 0.875 -9.03125 1.03125 -9.1875 C 1.195312 -9.34375 1.378906 -9.421875 1.578125 -9.421875 C 1.785156 -9.421875 1.960938 -9.34375 2.109375 -9.1875 C 2.265625 -9.03125 2.34375 -8.84375 2.34375 -8.625 Z M 2.34375 -8.625 "/></g></g></g><g fill="#737373" fill-opacity="1"><g transform="translate(662.41286, 432.56419)"><g><path d="M 5.5625 -0.71875 L 5.65625 -4.609375 C 5.65625 -5.160156 5.515625 -5.578125 5.234375 -5.859375 C 4.960938 -6.140625 4.613281 -6.28125 4.1875 -6.28125 C 3.507812 -6.28125 2.835938 -6.003906 2.171875 -5.453125 C 2.191406 -4.097656 2.203125 -3.023438 2.203125 -2.234375 C 2.203125 -1.429688 2.234375 -0.691406 2.296875 -0.015625 C 2.140625 0.015625 1.96875 0.03125 1.78125 0.03125 C 1.332031 0.03125 1.109375 -0.160156 1.109375 -0.546875 C 1.109375 -0.578125 1.117188 -0.941406 1.140625 -1.640625 C 1.171875 -2.335938 1.1875 -3.03125 1.1875 -3.71875 C 1.1875 -5.363281 1.09375 -6.425781 0.90625 -6.90625 C 1.101562 -6.976562 1.28125 -7.015625 1.4375 -7.015625 C 1.894531 -7.015625 2.125 -6.765625 2.125 -6.265625 C 2.425781 -6.492188 2.8125 -6.691406 3.28125 -6.859375 C 3.75 -7.035156 4.25 -7.125 4.78125 -7.125 C 5.289062 -7.125 5.734375 -6.957031 6.109375 -6.625 C 6.484375 -6.289062 6.671875 -5.753906 6.671875 -5.015625 L 6.625 -2.34375 C 6.625 -1.414062 6.710938 -0.660156 6.890625 -0.078125 C 6.679688 0.00390625 6.46875 0.046875 6.25 0.046875 C 6.019531 0.046875 5.847656 -0.0078125 5.734375 -0.125 C 5.617188 -0.238281 5.5625 -0.4375 5.5625 -0.71875 Z M 5.5625 -0.71875 "/></g></g></g><g fill="#737373" fill-opacity="1"><g transform="translate(671.698504, 432.56419)"><g/></g></g><g fill="#737373" fill-opacity="1"><g transform="translate(676.919207, 432.56419)"><g><path d="M 7.71875 -2 C 8.15625 -1.832031 8.375 -1.578125 8.375 -1.234375 C 8.375 -0.898438 8.085938 -0.585938 7.515625 -0.296875 C 6.941406 -0.00390625 6.234375 0.140625 5.390625 0.140625 C 3.984375 0.140625 2.851562 -0.328125 2 -1.265625 C 1.15625 -2.210938 0.734375 -3.472656 0.734375 -5.046875 C 0.734375 -6.609375 1.15625 -7.835938 2 -8.734375 C 2.851562 -9.640625 4.003906 -10.09375 5.453125 -10.09375 C 6.234375 -10.09375 6.890625 -9.929688 7.421875 -9.609375 C 7.953125 -9.296875 8.21875 -8.910156 8.21875 -8.453125 C 8.21875 -8.046875 7.9375 -7.800781 7.375 -7.71875 C 7.175781 -8.195312 6.875 -8.554688 6.46875 -8.796875 C 6.0625 -9.046875 5.625 -9.171875 5.15625 -9.171875 C 4.21875 -9.171875 3.453125 -8.796875 2.859375 -8.046875 C 2.265625 -7.304688 1.96875 -6.34375 1.96875 -5.15625 C 1.96875 -3.957031 2.265625 -2.925781 2.859375 -2.0625 C 3.460938 -1.195312 4.304688 -0.765625 5.390625 -0.765625 C 5.867188 -0.765625 6.316406 -0.867188 6.734375 -1.078125 C 7.148438 -1.285156 7.476562 -1.59375 7.71875 -2 Z M 7.71875 -2 "/></g></g></g><g fill="#737373" fill-opacity="1"><g transform="translate(687.449968, 432.56419)"><g><path d="M 5.875 -4.6875 L 5.859375 -2.65625 C 5.859375 -1.507812 5.953125 -0.648438 6.140625 -0.078125 C 5.972656 0.00390625 5.78125 0.046875 5.5625 0.046875 C 5.332031 0.046875 5.171875 -0.00390625 5.078125 -0.109375 C 4.992188 -0.210938 4.9375 -0.378906 4.90625 -0.609375 C 4.289062 -0.109375 3.648438 0.140625 2.984375 0.140625 C 1.441406 0.140625 0.671875 -0.5625 0.671875 -1.96875 C 0.671875 -2.476562 0.789062 -2.851562 1.03125 -3.09375 C 1.269531 -3.332031 1.597656 -3.515625 2.015625 -3.640625 C 2.773438 -3.835938 3.726562 -3.96875 4.875 -4.03125 C 4.875 -4.882812 4.769531 -5.472656 4.5625 -5.796875 C 4.351562 -6.117188 3.90625 -6.28125 3.21875 -6.28125 C 2.945312 -6.28125 2.660156 -6.191406 2.359375 -6.015625 C 2.054688 -5.835938 1.828125 -5.578125 1.671875 -5.234375 C 1.210938 -5.328125 0.984375 -5.53125 0.984375 -5.84375 C 0.984375 -6.226562 1.222656 -6.535156 1.703125 -6.765625 C 2.191406 -7.003906 2.8125 -7.125 3.5625 -7.125 C 4.3125 -7.125 4.882812 -6.945312 5.28125 -6.59375 C 5.675781 -6.238281 5.875 -5.601562 5.875 -4.6875 Z M 4.859375 -3.265625 C 4.566406 -3.234375 4.347656 -3.207031 4.203125 -3.1875 C 4.054688 -3.175781 3.859375 -3.15625 3.609375 -3.125 C 3.367188 -3.09375 3.1875 -3.0625 3.0625 -3.03125 C 2.945312 -3 2.800781 -2.957031 2.625 -2.90625 C 2.457031 -2.851562 2.328125 -2.796875 2.234375 -2.734375 C 2.148438 -2.679688 2.066406 -2.617188 1.984375 -2.546875 C 1.816406 -2.410156 1.734375 -2.21875 1.734375 -1.96875 C 1.734375 -1.519531 1.859375 -1.1875 2.109375 -0.96875 C 2.367188 -0.75 2.703125 -0.640625 3.109375 -0.640625 C 3.785156 -0.640625 4.359375 -0.863281 4.828125 -1.3125 C 4.816406 -1.457031 4.8125 -1.71875 4.8125 -2.09375 C 4.8125 -2.457031 4.828125 -2.847656 4.859375 -3.265625 Z M 4.859375 -3.265625 "/></g></g></g><g fill="#737373" fill-opacity="1"><g transform="translate(695.907976, 432.56419)"><g><path d="M 0.96875 -0.8125 L 1 -3.46875 C 1 -4.894531 0.96875 -6.0625 0.90625 -6.96875 C 1.0625 -7 1.226562 -7.015625 1.40625 -7.015625 C 1.84375 -7.015625 2.0625 -6.828125 2.0625 -6.453125 C 2.0625 -6.429688 2.054688 -6.363281 2.046875 -6.25 C 2.046875 -6.132812 2.046875 -6.023438 2.046875 -5.921875 C 2.242188 -6.234375 2.507812 -6.507812 2.84375 -6.75 C 3.175781 -7 3.484375 -7.125 3.765625 -7.125 C 4.304688 -7.125 4.578125 -6.929688 4.578125 -6.546875 C 4.578125 -6.347656 4.476562 -6.117188 4.28125 -5.859375 C 4.0625 -6.054688 3.816406 -6.15625 3.546875 -6.15625 C 3.273438 -6.15625 3 -6.046875 2.71875 -5.828125 C 2.4375 -5.609375 2.195312 -5.316406 2 -4.953125 C 2 -4.609375 2 -3.867188 2 -2.734375 C 2 -1.585938 2.09375 -0.703125 2.28125 -0.078125 C 2.09375 0.00390625 1.878906 0.046875 1.640625 0.046875 C 1.398438 0.046875 1.226562 -0.015625 1.125 -0.140625 C 1.019531 -0.273438 0.96875 -0.5 0.96875 -0.8125 Z M 0.96875 -0.8125 "/></g></g></g><g fill="#737373" fill-opacity="1"><g transform="translate(702.132097, 432.56419)"><g><path d="M 4.015625 -7.125 C 4.710938 -7.125 5.28125 -6.925781 5.71875 -6.53125 C 6.15625 -6.132812 6.375 -5.707031 6.375 -5.25 C 6.375 -4.789062 6.300781 -4.429688 6.15625 -4.171875 C 6.019531 -3.910156 5.835938 -3.703125 5.609375 -3.546875 C 5.390625 -3.398438 5.070312 -3.285156 4.65625 -3.203125 C 4.007812 -3.085938 3.046875 -3.03125 1.765625 -3.03125 C 1.847656 -2.3125 2.066406 -1.738281 2.421875 -1.3125 C 2.773438 -0.894531 3.300781 -0.6875 4 -0.6875 C 4.695312 -0.6875 5.195312 -0.945312 5.5 -1.46875 C 5.894531 -1.3125 6.09375 -1.09375 6.09375 -0.8125 C 6.09375 -0.53125 5.863281 -0.300781 5.40625 -0.125 C 4.945312 0.0507812 4.4375 0.140625 3.875 0.140625 C 2.9375 0.140625 2.164062 -0.15625 1.5625 -0.75 C 0.96875 -1.34375 0.671875 -2.234375 0.671875 -3.421875 C 0.671875 -4.617188 1.003906 -5.535156 1.671875 -6.171875 C 2.335938 -6.804688 3.117188 -7.125 4.015625 -7.125 Z M 3.96875 -6.296875 C 3.363281 -6.296875 2.847656 -6.085938 2.421875 -5.671875 C 1.992188 -5.265625 1.773438 -4.632812 1.765625 -3.78125 C 3.179688 -3.78125 4.128906 -3.882812 4.609375 -4.09375 C 4.804688 -4.1875 4.976562 -4.316406 5.125 -4.484375 C 5.269531 -4.648438 5.34375 -4.878906 5.34375 -5.171875 C 5.34375 -5.453125 5.207031 -5.707031 4.9375 -5.9375 C 4.675781 -6.175781 4.351562 -6.296875 3.96875 -6.296875 Z M 3.96875 -6.296875 "/></g></g></g><g fill="#737373" fill-opacity="1"><g transform="translate(710.685319, 432.56419)"><g/></g></g><g fill="#737373" fill-opacity="1"><g transform="translate(715.906022, 432.56419)"><g><path d="M 6.015625 -8 C 5.835938 -8.320312 5.53125 -8.59375 5.09375 -8.8125 C 4.65625 -9.03125 4.191406 -9.140625 3.703125 -9.140625 C 3.210938 -9.140625 2.796875 -9 2.453125 -8.71875 C 2.109375 -8.4375 1.9375 -8.0625 1.9375 -7.59375 C 1.9375 -7.113281 2.0625 -6.738281 2.3125 -6.46875 C 2.570312 -6.207031 2.890625 -6.019531 3.265625 -5.90625 C 3.648438 -5.800781 4.066406 -5.675781 4.515625 -5.53125 C 4.960938 -5.382812 5.375 -5.226562 5.75 -5.0625 C 6.132812 -4.90625 6.453125 -4.628906 6.703125 -4.234375 C 6.960938 -3.847656 7.09375 -3.378906 7.09375 -2.828125 C 7.09375 -2.273438 6.992188 -1.800781 6.796875 -1.40625 C 6.597656 -1.019531 6.328125 -0.71875 5.984375 -0.5 C 5.328125 -0.0703125 4.578125 0.140625 3.734375 0.140625 C 2.890625 0.140625 2.164062 0.00390625 1.5625 -0.265625 C 0.96875 -0.535156 0.671875 -0.867188 0.671875 -1.265625 C 0.671875 -1.492188 0.796875 -1.6875 1.046875 -1.84375 C 1.128906 -1.894531 1.257812 -1.96875 1.4375 -2.0625 C 1.632812 -1.6875 1.976562 -1.378906 2.46875 -1.140625 C 2.957031 -0.910156 3.472656 -0.796875 4.015625 -0.796875 C 4.546875 -0.796875 5.007812 -0.945312 5.40625 -1.25 C 5.8125 -1.550781 6.015625 -1.960938 6.015625 -2.484375 C 6.015625 -3.003906 5.835938 -3.398438 5.484375 -3.671875 C 5.128906 -3.953125 4.695312 -4.160156 4.1875 -4.296875 C 3.6875 -4.441406 3.179688 -4.597656 2.671875 -4.765625 C 2.171875 -4.941406 1.742188 -5.226562 1.390625 -5.625 C 1.035156 -6.03125 0.859375 -6.570312 0.859375 -7.25 C 0.859375 -8.164062 1.160156 -8.867188 1.765625 -9.359375 C 2.367188 -9.847656 3.140625 -10.09375 4.078125 -10.09375 C 4.765625 -10.09375 5.398438 -9.972656 5.984375 -9.734375 C 6.578125 -9.492188 6.875 -9.164062 6.875 -8.75 C 6.875 -8.34375 6.585938 -8.09375 6.015625 -8 Z M 6.015625 -8 "/></g></g></g><g fill="#737373" fill-opacity="1"><g transform="translate(725.177017, 432.56419)"><g><path d="M 7.203125 -3.484375 C 7.203125 -2.378906 6.898438 -1.5 6.296875 -0.84375 C 5.691406 -0.1875 4.90625 0.140625 3.9375 0.140625 C 2.957031 0.140625 2.164062 -0.1875 1.5625 -0.84375 C 0.96875 -1.5 0.671875 -2.378906 0.671875 -3.484375 C 0.671875 -4.578125 0.96875 -5.457031 1.5625 -6.125 C 2.164062 -6.789062 2.957031 -7.125 3.9375 -7.125 C 4.90625 -7.125 5.691406 -6.789062 6.296875 -6.125 C 6.898438 -5.457031 7.203125 -4.578125 7.203125 -3.484375 Z M 3.9375 -0.6875 C 4.632812 -0.6875 5.175781 -0.921875 5.5625 -1.390625 C 5.957031 -1.867188 6.15625 -2.515625 6.15625 -3.328125 C 6.15625 -4.148438 5.953125 -4.847656 5.546875 -5.421875 C 5.148438 -5.992188 4.609375 -6.28125 3.921875 -6.28125 C 3.222656 -6.28125 2.679688 -6.039062 2.296875 -5.5625 C 1.921875 -5.09375 1.734375 -4.453125 1.734375 -3.640625 C 1.734375 -2.816406 1.925781 -2.117188 2.3125 -1.546875 C 2.695312 -0.972656 3.238281 -0.6875 3.9375 -0.6875 Z M 3.9375 -0.6875 "/></g></g></g><g fill="#737373" fill-opacity="1"><g transform="translate(734.550552, 432.56419)"><g><path d="M 0.984375 -0.734375 L 1.015625 -5.03125 L 1.015625 -6.765625 C 1.015625 -9.128906 0.976562 -10.578125 0.90625 -11.109375 C 1.0625 -11.128906 1.234375 -11.140625 1.421875 -11.140625 C 1.878906 -11.140625 2.109375 -10.953125 2.109375 -10.578125 C 2.109375 -10.535156 2.109375 -10.269531 2.109375 -9.78125 C 2.035156 -7.957031 2 -6.488281 2 -5.375 L 2 -3.03125 C 2 -1.695312 2.097656 -0.710938 2.296875 -0.078125 C 2.109375 0.00390625 1.894531 0.046875 1.65625 0.046875 C 1.414062 0.046875 1.242188 -0.0078125 1.140625 -0.125 C 1.035156 -0.25 0.984375 -0.453125 0.984375 -0.734375 Z M 0.984375 -0.734375 "/></g></g></g><g fill="#737373" fill-opacity="1"><g transform="translate(739.243911, 432.56419)"><g><path d="M 6.640625 -6.453125 L 6.578125 -3.046875 C 6.578125 -1.773438 6.675781 -0.785156 6.875 -0.078125 C 6.664062 0.00390625 6.476562 0.046875 6.3125 0.046875 C 5.851562 0.046875 5.625 -0.203125 5.625 -0.703125 C 4.90625 -0.140625 4.109375 0.140625 3.234375 0.140625 C 1.816406 0.140625 1.109375 -0.5625 1.109375 -1.96875 L 1.15625 -4.640625 C 1.15625 -5.546875 1.070312 -6.300781 0.90625 -6.90625 C 1.101562 -6.976562 1.3125 -7.015625 1.53125 -7.015625 C 1.757812 -7.015625 1.929688 -6.957031 2.046875 -6.84375 C 2.160156 -6.726562 2.21875 -6.53125 2.21875 -6.25 L 2.125 -2.375 C 2.125 -1.832031 2.253906 -1.414062 2.515625 -1.125 C 2.785156 -0.832031 3.128906 -0.6875 3.546875 -0.6875 C 4.273438 -0.6875 4.953125 -0.960938 5.578125 -1.515625 C 5.566406 -1.941406 5.5625 -2.742188 5.5625 -3.921875 C 5.5625 -5.085938 5.523438 -6.101562 5.453125 -6.96875 C 5.617188 -7 5.789062 -7.015625 5.96875 -7.015625 C 6.414062 -7.015625 6.640625 -6.828125 6.640625 -6.453125 Z M 6.640625 -6.453125 "/></g></g></g><g fill="#737373" fill-opacity="1"><g transform="translate(748.514907, 432.56419)"><g><path d="M 1.4375 -6.171875 C 1.40625 -6.171875 0.941406 -6.132812 0.046875 -6.0625 C 0.015625 -6.15625 0 -6.296875 0 -6.484375 C 0 -6.679688 0.0703125 -6.8125 0.21875 -6.875 C 0.375 -6.9375 0.628906 -6.96875 0.984375 -6.96875 L 1.40625 -6.96875 C 1.382812 -7.644531 1.351562 -8.207031 1.3125 -8.65625 C 1.46875 -8.6875 1.632812 -8.703125 1.8125 -8.703125 C 2.289062 -8.703125 2.53125 -8.507812 2.53125 -8.125 C 2.53125 -7.988281 2.507812 -7.597656 2.46875 -6.953125 C 3.738281 -6.953125 4.582031 -6.976562 5 -7.03125 C 5.03125 -6.957031 5.046875 -6.832031 5.046875 -6.65625 C 5.046875 -6.476562 4.992188 -6.351562 4.890625 -6.28125 C 4.785156 -6.21875 4.585938 -6.179688 4.296875 -6.171875 C 4.015625 -6.160156 3.398438 -6.15625 2.453125 -6.15625 C 2.429688 -5.070312 2.421875 -4.019531 2.421875 -3 C 2.421875 -1.96875 2.515625 -1.316406 2.703125 -1.046875 C 2.898438 -0.773438 3.21875 -0.640625 3.65625 -0.640625 C 4.09375 -0.640625 4.457031 -0.789062 4.75 -1.09375 C 4.9375 -0.90625 5.03125 -0.71875 5.03125 -0.53125 C 5.03125 -0.332031 4.898438 -0.171875 4.640625 -0.046875 C 4.378906 0.078125 4.0625 0.140625 3.6875 0.140625 C 2.863281 0.140625 2.273438 -0.0976562 1.921875 -0.578125 C 1.578125 -1.054688 1.40625 -1.769531 1.40625 -2.71875 C 1.425781 -4.519531 1.4375 -5.671875 1.4375 -6.171875 Z M 1.4375 -6.171875 "/></g></g></g><g fill="#737373" fill-opacity="1"><g transform="translate(755.295668, 432.56419)"><g><path d="M 1.0625 -0.8125 L 1.09375 -3.46875 C 1.09375 -4.894531 1.054688 -6.0625 0.984375 -6.96875 C 1.148438 -7 1.320312 -7.015625 1.5 -7.015625 C 1.96875 -7.015625 2.203125 -6.828125 2.203125 -6.453125 C 2.203125 -6.398438 2.191406 -6.203125 2.171875 -5.859375 C 2.117188 -4.785156 2.09375 -3.710938 2.09375 -2.640625 C 2.09375 -1.554688 2.1875 -0.703125 2.375 -0.078125 C 2.195312 0.00390625 1.984375 0.046875 1.734375 0.046875 C 1.484375 0.046875 1.304688 -0.015625 1.203125 -0.140625 C 1.109375 -0.273438 1.0625 -0.5 1.0625 -0.8125 Z M 2.34375 -8.625 C 2.34375 -8.394531 2.257812 -8.203125 2.09375 -8.046875 C 1.9375 -7.890625 1.753906 -7.8125 1.546875 -7.8125 C 1.347656 -7.8125 1.171875 -7.882812 1.015625 -8.03125 C 0.867188 -8.1875 0.796875 -8.378906 0.796875 -8.609375 C 0.796875 -8.835938 0.875 -9.03125 1.03125 -9.1875 C 1.195312 -9.34375 1.378906 -9.421875 1.578125 -9.421875 C 1.785156 -9.421875 1.960938 -9.34375 2.109375 -9.1875 C 2.265625 -9.03125 2.34375 -8.84375 2.34375 -8.625 Z M 2.34375 -8.625 "/></g></g></g><g fill="#737373" fill-opacity="1"><g transform="translate(759.989027, 432.56419)"><g><path d="M 7.203125 -3.484375 C 7.203125 -2.378906 6.898438 -1.5 6.296875 -0.84375 C 5.691406 -0.1875 4.90625 0.140625 3.9375 0.140625 C 2.957031 0.140625 2.164062 -0.1875 1.5625 -0.84375 C 0.96875 -1.5 0.671875 -2.378906 0.671875 -3.484375 C 0.671875 -4.578125 0.96875 -5.457031 1.5625 -6.125 C 2.164062 -6.789062 2.957031 -7.125 3.9375 -7.125 C 4.90625 -7.125 5.691406 -6.789062 6.296875 -6.125 C 6.898438 -5.457031 7.203125 -4.578125 7.203125 -3.484375 Z M 3.9375 -0.6875 C 4.632812 -0.6875 5.175781 -0.921875 5.5625 -1.390625 C 5.957031 -1.867188 6.15625 -2.515625 6.15625 -3.328125 C 6.15625 -4.148438 5.953125 -4.847656 5.546875 -5.421875 C 5.148438 -5.992188 4.609375 -6.28125 3.921875 -6.28125 C 3.222656 -6.28125 2.679688 -6.039062 2.296875 -5.5625 C 1.921875 -5.09375 1.734375 -4.453125 1.734375 -3.640625 C 1.734375 -2.816406 1.925781 -2.117188 2.3125 -1.546875 C 2.695312 -0.972656 3.238281 -0.6875 3.9375 -0.6875 Z M 3.9375 -0.6875 "/></g></g></g><g fill="#737373" fill-opacity="1"><g transform="translate(769.362562, 432.56419)"><g><path d="M 5.5625 -0.71875 L 5.65625 -4.609375 C 5.65625 -5.160156 5.515625 -5.578125 5.234375 -5.859375 C 4.960938 -6.140625 4.613281 -6.28125 4.1875 -6.28125 C 3.507812 -6.28125 2.835938 -6.003906 2.171875 -5.453125 C 2.191406 -4.097656 2.203125 -3.023438 2.203125 -2.234375 C 2.203125 -1.429688 2.234375 -0.691406 2.296875 -0.015625 C 2.140625 0.015625 1.96875 0.03125 1.78125 0.03125 C 1.332031 0.03125 1.109375 -0.160156 1.109375 -0.546875 C 1.109375 -0.578125 1.117188 -0.941406 1.140625 -1.640625 C 1.171875 -2.335938 1.1875 -3.03125 1.1875 -3.71875 C 1.1875 -5.363281 1.09375 -6.425781 0.90625 -6.90625 C 1.101562 -6.976562 1.28125 -7.015625 1.4375 -7.015625 C 1.894531 -7.015625 2.125 -6.765625 2.125 -6.265625 C 2.425781 -6.492188 2.8125 -6.691406 3.28125 -6.859375 C 3.75 -7.035156 4.25 -7.125 4.78125 -7.125 C 5.289062 -7.125 5.734375 -6.957031 6.109375 -6.625 C 6.484375 -6.289062 6.671875 -5.753906 6.671875 -5.015625 L 6.625 -2.34375 C 6.625 -1.414062 6.710938 -0.660156 6.890625 -0.078125 C 6.679688 0.00390625 6.46875 0.046875 6.25 0.046875 C 6.019531 0.046875 5.847656 -0.0078125 5.734375 -0.125 C 5.617188 -0.238281 5.5625 -0.4375 5.5625 -0.71875 Z M 5.5625 -0.71875 "/></g></g></g><g fill="#737373" fill-opacity="1"><g transform="translate(778.648206, 432.56419)"><g/></g></g><g fill="#737373" fill-opacity="1"><g transform="translate(783.868909, 432.56419)"><g><path d="M 3.359375 -9.171875 C 3.117188 -9.171875 2.78125 -9.15625 2.34375 -9.125 C 2.382812 -8.28125 2.40625 -7.15625 2.40625 -5.75 C 2.71875 -5.726562 2.988281 -5.71875 3.21875 -5.71875 C 5.082031 -5.71875 6.015625 -6.285156 6.015625 -7.421875 C 6.015625 -8.585938 5.128906 -9.171875 3.359375 -9.171875 Z M 4.078125 -0.765625 C 4.722656 -0.765625 5.265625 -0.945312 5.703125 -1.3125 C 6.148438 -1.675781 6.375 -2.191406 6.375 -2.859375 C 6.375 -3.523438 6.125 -4.039062 5.625 -4.40625 C 5.132812 -4.78125 4.550781 -4.96875 3.875 -4.96875 C 3.175781 -4.96875 2.679688 -4.941406 2.390625 -4.890625 C 2.390625 -4.085938 2.320312 -2.890625 2.1875 -1.296875 C 2.375 -1.148438 2.648438 -1.023438 3.015625 -0.921875 C 3.378906 -0.816406 3.734375 -0.765625 4.078125 -0.765625 Z M 1.03125 -0.796875 C 1.195312 -1.929688 1.28125 -3.515625 1.28125 -5.546875 C 1.28125 -7.578125 1.210938 -9.035156 1.078125 -9.921875 C 1.816406 -10.035156 2.671875 -10.09375 3.640625 -10.09375 C 4.609375 -10.09375 5.4375 -9.890625 6.125 -9.484375 C 6.820312 -9.085938 7.171875 -8.410156 7.171875 -7.453125 C 7.171875 -6.492188 6.734375 -5.816406 5.859375 -5.421875 C 6.972656 -4.953125 7.53125 -4.097656 7.53125 -2.859375 C 7.53125 -1.910156 7.222656 -1.171875 6.609375 -0.640625 C 5.992188 -0.117188 5.238281 0.140625 4.34375 0.140625 C 2.894531 0.140625 1.789062 -0.171875 1.03125 -0.796875 Z M 1.03125 -0.796875 "/></g></g></g><g fill="#737373" fill-opacity="1"><g transform="translate(793.572033, 432.56419)"><g><path d="M 5.640625 -7.125 C 5.992188 -7.125 6.171875 -6.90625 6.171875 -6.46875 C 6.171875 -6.039062 5.988281 -5.265625 5.625 -4.140625 C 5.269531 -3.015625 4.847656 -1.929688 4.359375 -0.890625 C 3.484375 0.984375 2.65625 2.40625 1.875 3.375 C 1.675781 3.632812 1.484375 3.765625 1.296875 3.765625 C 1.015625 3.765625 0.738281 3.566406 0.46875 3.171875 C 0.769531 2.972656 1.171875 2.582031 1.671875 2 C 2.171875 1.414062 2.601562 0.828125 2.96875 0.234375 C 2.625 -0.921875 2.148438 -2.238281 1.546875 -3.71875 C 0.941406 -5.207031 0.425781 -6.15625 0 -6.5625 C 0.351562 -6.882812 0.640625 -7.046875 0.859375 -7.046875 C 1.085938 -7.046875 1.28125 -6.882812 1.4375 -6.5625 C 1.675781 -6.09375 2.03125 -5.257812 2.5 -4.0625 C 2.96875 -2.863281 3.316406 -1.867188 3.546875 -1.078125 C 3.984375 -2.003906 4.363281 -3.003906 4.6875 -4.078125 C 5.007812 -5.148438 5.171875 -5.992188 5.171875 -6.609375 C 5.171875 -6.660156 5.160156 -6.804688 5.140625 -7.046875 C 5.296875 -7.097656 5.460938 -7.125 5.640625 -7.125 Z M 5.640625 -7.125 "/></g></g></g></svg>